<?xml version="1.0" standalone="no"?><!DOCTYPE svg PUBLIC "-//W3C//DTD SVG 1.1//EN" "http://www.w3.org/Graphics/SVG/1.1/DTD/svg11.dtd"><svg t="1502414540656" class="icon" style="" viewBox="0 0 1024 1024" version="1.1" xmlns="http://www.w3.org/2000/svg" p-id="2533" xmlns:xlink="http://www.w3.org/1999/xlink" width="200" height="200"><defs><style type="text/css"></style></defs><path d="M512 512m-512 0a512 512 0 1 0 1024 0 512 512 0 1 0-1024 0Z" fill="#378CFF" p-id="2534"></path><path d="M766.316308 435.584c-11.490462-15.212308-181.110154-34.274462-181.110154-34.274462S530.884923 256 505.265231 261.907692s-75.904 148.558769-75.904 148.55877-179.436308 8.536615-186.269539 33.152 115.446154 122.466462 115.446154 122.466461-45.508923 158.976-12.386461 175.340308c20.371692 10.052923 152.280615-87.847385 152.280615-87.847385s136.723692 104.595692 169.206154 89.176616c18.638769-8.861538-40.300308-176.669538-40.300308-176.669539S777.846154 450.756923 766.316308 435.584z" fill="#FFCD18" p-id="2535"></path><path d="M553.137231 479.153231L393.846154 456.438154a618.505846 618.505846 0 0 1 228.814769 0c2.953846 6.084923-145.516308 110.651077-143.616 119.138461 90.584615 17.004308 200.339692 24.615385 200.339692 24.615385S498.126769 610.461538 400.738462 592.580923c1.969231-9.846154 152.398769-113.427692 152.398769-113.427692z m0 0L393.846154 456.438154a618.505846 618.505846 0 0 1 228.814769 0c2.953846 6.084923-145.516308 110.651077-143.616 119.138461 90.584615 17.004308 200.339692 24.615385 200.339692 24.615385S498.126769 610.461538 400.738462 592.580923c1.969231-9.846154 152.398769-113.427692 152.398769-113.427692z" fill="#FFFFFF" p-id="2536"></path></svg>