<?xml version="1.0" standalone="no"?><!DOCTYPE svg PUBLIC "-//W3C//DTD SVG 1.1//EN" "http://www.w3.org/Graphics/SVG/1.1/DTD/svg11.dtd"><svg t="1502415174244" class="icon" style="" viewBox="0 0 1024 1024" version="1.1" xmlns="http://www.w3.org/2000/svg" p-id="5002" xmlns:xlink="http://www.w3.org/1999/xlink" width="200" height="200"><defs><style type="text/css"></style></defs><path d="M785.066667 578.389333c-22.755556 0-39.822222-17.066667-39.822223-39.822222 0-22.755556 17.066667-39.822222 39.822223-39.822222 22.755556 0 39.822222 17.066667 39.822222 39.822222 0 22.755556-17.066667 39.822222-39.822222 39.822222m-204.8 0c-22.755556 0-39.822222-17.066667-39.822223-39.822222 0-22.755556 17.066667-39.822222 39.822223-39.822222 22.755556 0 39.822222 17.066667 39.822222 39.822222 0 22.755556-17.066667 39.822222-39.822222 39.822222m386.844444 56.888889c0-130.844444-113.777778-238.933333-261.688889-250.311111H682.666667c-153.6 0-278.755556 113.777778-278.755556 250.311111 0 22.755556 5.688889 39.822222 5.688889 62.577778 28.444444 108.088889 142.222222 187.733333 273.066667 187.733333 45.511111 0 85.333333-11.377778 125.155555-28.444444l62.577778 45.511111s17.066667 11.377778 17.066667-11.377778l-17.066667-68.266666c56.888889-45.511111 96.711111-113.777778 96.711111-187.733334" fill="#1AAD19" p-id="5003"></path><path d="M256 356.522667c-22.755556 0-39.822222-17.066667-39.822222-39.822223 0-22.755556 17.066667-39.822222 39.822222-39.822222 22.755556 0 39.822222 17.066667 39.822222 39.822222 0 17.066667-17.066667 39.822222-39.822222 39.822223m250.311111-85.333334c22.755556 0 39.822222 17.066667 39.822222 39.822223 0 22.755556-17.066667 39.822222-39.822222 39.822222-22.755556 0-39.822222-17.066667-39.822222-39.822222 0-22.755556 17.066667-39.822222 39.822222-39.822223m199.111111 96.711111c-22.755556-142.222222-159.288889-250.311111-324.266666-250.311111-176.355556 0-324.266667 130.844444-324.266667 290.133334 0 91.022222 45.511111 170.666667 113.777778 221.866666l-22.755556 91.022223s-5.688889 28.444444 22.755556 17.066666l91.022222-62.577778c39.822222 11.377778 79.644444 22.755556 119.466667 22.755556h11.377777c-5.688889-17.066667-5.688889-39.822222-5.688889-62.577778 0-147.911111 136.533333-273.066667 301.511112-273.066666 5.688889 0 11.377778 0 17.066666 5.688888z" fill="#1AAD19" p-id="5004"></path></svg>